<?xml version="1.0" encoding="utf-8"?>
<!-- Generator: Adobe Illustrator 27.6.1, SVG Export Plug-In . SVG Version: 6.00 Build 0)  -->
<svg version="1.1" id="Layer_1" xmlns="http://www.w3.org/2000/svg" xmlns:xlink="http://www.w3.org/1999/xlink" x="0px" y="0px"
	 viewBox="0 0 300 70.1" style="enable-background:new 0 0 300 70.1;" xml:space="preserve">
<style type="text/css">
	.st0{fill:#FFC511;}
	.st1{fill:#FFFFFF;}
	.st2{fill:#1D1D1B;}
</style>
<g>
	<g>
		<path class="st0" d="M12.3,6.8h23.8c5.5,0,10,4.5,10,10v23.8c0,5.5-4.5,10-10,10H12.3c-5.5,0-10-4.5-10-10V16.8
			C2.3,11.3,6.8,6.8,12.3,6.8z"/>
		<circle class="st1" cx="33.9" cy="17.9" r="4.4"/>
		<path class="st1" d="M24,26.1l4.1,0l-0.1,13.1c0,2.2-1.8,4-4,3.9l0,0c-2.3,0-4.1-1.9-4.1-4.2l0.1-9C20.1,27.9,21.8,26.1,24,26.1z"
			/>
		<path class="st1" d="M24,23.6l4.1,0l-0.1,13.1c0,2.2-1.8,4-4,3.9l0,0c-2.3,0-4.1-1.9-4.1-4.2l0.1-9C20.1,25.3,21.8,23.5,24,23.6z"
			/>
		<path class="st1" d="M27.1,17.8v4.1H14c-2.2,0-4-1.8-4-4l0,0c0-2.3,1.9-4.1,4.1-4.1h9C25.3,13.8,27.1,15.6,27.1,17.8z"/>
		<path class="st1" d="M28.2,17.8v4.1H15.1c-2.2,0-4-1.8-4-4l0,0c0-2.3,1.9-4.1,4.1-4.1h9C26.4,13.8,28.2,15.6,28.2,17.8z"/>
	</g>
	<g>
		<path class="st2" d="M53.6,40V16.5c0-1.8,1.4-3.2,3.2-3.2c1.7,0,3.1,1.4,3.1,3.2V40c0,1.8-1.4,3.2-3.2,3.2
			C55,43.2,53.6,41.8,53.6,40z"/>
		<path class="st2" d="M93.6,22.3V40c0,1.8-1.4,3.2-3.2,3.2c-1.7,0-3.1-1.4-3.1-3.2V24.6c0-4.5-2.3-6-5.9-6c-3.3,0-6,1.9-7.5,3.9V40
			c0,1.8-1.4,3.2-3.1,3.2c-1.8,0-3.2-1.4-3.2-3.2V16.5c0-1.8,1.4-3.2,3.1-3.2c1.8,0,3.2,1.4,3.2,3.2v1.1c1.9-2.3,5.7-4.7,10.3-4.7
			C90.4,13,93.6,16.4,93.6,22.3z"/>
		<path class="st2" d="M104.9,39.7V8.8h-9.4c-1.7,0-3.1-1.4-3.1-3.1c0-1.8,1.4-3.1,3.1-3.1h25.9c1.7,0,3.1,1.4,3.1,3.1
			c0,1.7-1.4,3.1-3.1,3.1H112v30.9c0,1.9-1.6,3.6-3.5,3.6C106.5,43.2,104.9,41.6,104.9,39.7z"/>
		<path class="st2" d="M147.2,23.6V40c0,1.8-1.4,3.2-3.2,3.2c-1.7,0-3.1-1.4-3.1-3.2v-0.3c-2.2,2.5-5.6,3.9-9.4,3.9
			c-4.8,0-10.1-3.2-10.1-9.7c0-6.7,5.4-9.5,10.1-9.5c3.9,0,7.3,1.3,9.4,3.7v-4.3c0-3.4-2.8-5.4-6.8-5.4c-2.5,0-4.6,0.7-6.8,2.2
			c-0.4,0.2-0.9,0.4-1.4,0.4c-1.4,0-2.5-1.1-2.5-2.5c0-0.8,0.5-1.6,1.1-2.1c3.2-2.4,6.8-3.4,10.7-3.4
			C141.5,13,147.2,15.7,147.2,23.6z M140.8,36.2v-4.4c-1.4-2-4.2-3-6.9-3c-3.6,0-6.2,2.1-6.2,5.3c0,3.1,2.7,5.2,6.2,5.2
			C136.7,39.3,139.4,38.2,140.8,36.2z"/>
		<path class="st2" d="M180.8,22.3V40c0,1.8-1.4,3.2-3.2,3.2c-1.7,0-3.1-1.4-3.1-3.2V24.6c0-4.5-2.3-6-5.9-6c-3.3,0-6,1.9-7.5,3.9
			V40c0,1.8-1.4,3.2-3.1,3.2c-1.8,0-3.2-1.4-3.2-3.2V16.5c0-1.8,1.4-3.2,3.1-3.2c1.8,0,3.2,1.4,3.2,3.2v1.1
			c1.9-2.3,5.7-4.7,10.3-4.7C177.7,13,180.8,16.4,180.8,22.3z"/>
		<path class="st2" d="M215.3,5.4V40c0,1.8-1.4,3.2-3.2,3.2c-1.7,0-3.1-1.4-3.1-3.2V39c-2.2,2.8-5.6,4.6-9.4,4.6
			c-7.5,0-13-5.7-13-15.3c0-9.4,5.4-15.3,13-15.3c3.6,0,7,1.7,9.4,4.8V5.4c0-1.8,1.4-3.2,3.1-3.2C213.8,2.2,215.3,3.7,215.3,5.4z
			 M209,34.1V22.5c-1.4-2.2-4.5-3.9-7.5-3.9c-5,0-8.2,4-8.2,9.7c0,5.6,3.2,9.7,8.2,9.7C204.4,38,207.5,36.3,209,34.1z"/>
		<path class="st2" d="M235.9,13c8.8,0,14.4,6.7,14.4,14.4c0,1.9-1.3,3-3.7,3h-18.8c0.5,4.4,3.8,8,9.3,8c2.1,0,4.6-0.7,6.6-1.9
			c0.4-0.2,0.8-0.4,1.4-0.4c1.4,0,2.5,1.1,2.5,2.5c0,0.9-0.5,1.6-1.1,2.1c-2.9,1.9-6.4,2.8-10.1,2.8c-8.8,0-15.3-6.1-15.3-15.3
			C221.1,19.8,227.2,13,235.9,13z M227.7,25.9h16.4c-0.1-3.4-2.5-7.7-8.2-7.7C230.4,18.2,228,22.3,227.7,25.9z"/>
		<path class="st2" d="M298,21.8V40c0,1.8-1.4,3.2-3.2,3.2c-1.7,0-3.1-1.4-3.1-3.2V23.9c0-3.1-1.4-5.3-4.8-5.3c-2.8,0-5.5,2-6.8,3.9
			V40c0,1.8-1.4,3.2-3.2,3.2c-1.7,0-3.1-1.4-3.1-3.2V23.9c0-3.1-1.4-5.3-4.8-5.3c-2.8,0-5.4,2-6.7,3.9V40c0,1.8-1.4,3.2-3.1,3.2
			c-1.8,0-3.2-1.4-3.2-3.2V16.5c0-1.8,1.4-3.2,3.1-3.2c1.8,0,3.2,1.4,3.2,3.2v1.1c1.2-1.8,5.1-4.7,9.5-4.7c4.3,0,7,2.2,8,5.4
			c1.7-2.7,5.6-5.4,9.9-5.4C295,13,298,15.9,298,21.8z"/>
	</g>
	<g>
		<path d="M235,57.7c0,3.7-2.1,5.8-4.9,5.8c-1.5,0-2.7-0.7-3.6-1.8v0.4c0,0.7-0.6,1.2-1.2,1.2c-0.7,0-1.2-0.6-1.2-1.2V49
			c0-0.7,0.6-1.2,1.2-1.2c0.6,0,1.2,0.6,1.2,1.2v4.7c0.9-1.2,2.2-1.8,3.6-1.8C233,51.8,235,54.1,235,57.7z M232.5,57.7
			c0-2.2-1.2-3.7-3.2-3.7c-1.1,0-2.3,0.7-2.9,1.5v4.4c0.5,0.8,1.7,1.5,2.9,1.5C231.3,61.4,232.5,59.9,232.5,57.7z"/>
		<path d="M237.3,65.7h0.1c0.8,0,1.3-0.2,1.6-1l0.6-1.3l-4-9.8c0-0.1-0.1-0.3-0.1-0.4c0-0.7,0.5-1.2,1.2-1.2c0.5,0,1,0.3,1.1,0.8
			l3,7.7l3-7.7c0.2-0.4,0.6-0.8,1.1-0.8c0.7,0,1.2,0.5,1.2,1.2c0,0.2,0,0.3-0.1,0.5l-4.8,11.6c-0.8,1.9-2.1,2.5-3.8,2.5
			c-0.1,0-0.2,0-0.3,0c-0.6,0-1-0.5-1-1.1C236.1,66.1,236.7,65.7,237.3,65.7z"/>
		<path d="M260.9,53.2c0,0.2,0,0.3-0.1,0.5l-3.5,8.6c-0.3,0.7-0.9,1.2-1.7,1.2c-0.8,0-1.5-0.5-1.7-1.2l-3.5-8.6
			c0-0.1-0.1-0.3-0.1-0.4c0-0.7,0.5-1.2,1.2-1.2c0.5,0,1,0.3,1.1,0.8l3,7.8l3-7.8c0.2-0.4,0.6-0.8,1.1-0.8
			C260.4,52,260.9,52.5,260.9,53.2z"/>
		<path d="M268.1,51.8c1.6,0,2.7,0.5,3.5,1.2c0.2,0.2,0.4,0.5,0.4,0.8c0,0.6-0.5,1.1-1.1,1.1c-0.3,0-0.5-0.1-0.7-0.3
			c-0.6-0.5-1.2-0.7-2-0.7c-2,0-3.4,1.5-3.4,3.7s1.3,3.7,3.4,3.7c0.8,0,1.4-0.2,2-0.7c0.2-0.2,0.4-0.3,0.7-0.3
			c0.6,0,1.1,0.5,1.1,1.1c0,0.3-0.2,0.6-0.4,0.8c-0.8,0.7-2,1.2-3.5,1.2c-3.4,0-5.8-2.5-5.8-5.9C262.3,54.3,264.7,51.8,268.1,51.8z"
			/>
		<path d="M274.9,62.2v-9c0-0.7,0.6-1.2,1.2-1.2c0.6,0,1.2,0.6,1.2,1.2v9c0,0.7-0.6,1.2-1.2,1.2C275.5,63.4,274.9,62.9,274.9,62.2z"
			/>
		<path d="M286.5,62.4c0,0.5-0.3,0.8-0.6,0.9c-0.4,0.2-0.9,0.3-1.6,0.3c-1.9,0-2.9-1-2.9-2.9v-6.4h-0.9c-0.6,0-1.1-0.5-1.1-1.1
			c0-0.6,0.5-1.1,1.1-1.1h0.9v-2c0-0.7,0.6-1.2,1.2-1.2c0.6,0,1.2,0.6,1.2,1.2v2h1.3c0.6,0,1.1,0.5,1.1,1.1c0,0.6-0.5,1.1-1.1,1.1
			h-1.3v5.8c0,0.8,0.4,1.3,1.1,1.3c0.3,0,0.4-0.1,0.6-0.1C286.1,61.3,286.5,61.8,286.5,62.4z"/>
		<path d="M298,55.9v6.3c0,0.7-0.6,1.2-1.2,1.2c-0.6,0-1.2-0.6-1.2-1.2v-0.1c-0.8,0.9-2.1,1.5-3.6,1.5c-1.8,0-3.9-1.2-3.9-3.7
			c0-2.6,2.1-3.6,3.9-3.6c1.5,0,2.8,0.5,3.6,1.4V56c0-1.3-1.1-2.1-2.6-2.1c-0.9,0-1.8,0.3-2.6,0.8c-0.1,0.1-0.3,0.2-0.6,0.2
			c-0.5,0-1-0.4-1-1c0-0.3,0.2-0.6,0.4-0.8c1.2-0.9,2.6-1.3,4.1-1.3C295.8,51.8,298,52.9,298,55.9z M295.6,60.7v-1.7
			c-0.6-0.8-1.6-1.2-2.7-1.2c-1.4,0-2.4,0.8-2.4,2c0,1.2,1,2,2.4,2C294,61.9,295,61.5,295.6,60.7z"/>
	</g>
</g>
</svg>
